<svg width="226" height="253" viewBox="0 0 226 253" fill="none" xmlns="http://www.w3.org/2000/svg">
<mask id="path-1-inside-1_110:2" fill="white">
<path fill-rule="evenodd" clip-rule="evenodd" d="M110.697 249.917C112.621 253.25 117.433 253.25 119.357 249.917L134.325 223.991C186.538 214.019 226 168.118 226 113C226 50.5918 175.408 -3.72632e-08 113 -3.72633e-08C50.5918 -3.72633e-08 0 50.5918 0 113C0 169.689 41.7439 216.628 96.1697 224.755L110.697 249.917Z"/>
</mask>
<path d="M119.357 249.917L112.429 245.917L112.429 245.917L119.357 249.917ZM110.697 249.917L117.625 245.917V245.917L110.697 249.917ZM134.325 223.991L132.825 216.133L129.228 216.82L127.397 219.991L134.325 223.991ZM96.1697 224.755L103.098 220.755L101.168 217.413L97.3512 216.843L96.1697 224.755ZM112.429 245.917C113.584 243.917 116.47 243.917 117.625 245.917L103.769 253.917C108.772 262.583 121.282 262.583 126.285 253.917L112.429 245.917ZM127.397 219.991L112.429 245.917L126.285 253.917L141.254 227.991L127.397 219.991ZM218 113C218 164.207 181.336 206.868 132.825 216.133L135.826 231.849C191.739 221.17 234 172.029 234 113H218ZM113 8C170.99 8 218 55.0101 218 113H234C234 46.1736 179.826 -8 113 -8V8ZM8 113C8 55.0101 55.0101 8 113 8V-8C46.1736 -8 -8 46.1736 -8 113H8ZM97.3512 216.843C46.7858 209.292 8 165.668 8 113H-8C-8 173.709 36.7021 223.964 94.9882 232.667L97.3512 216.843ZM117.625 245.917L103.098 220.755L89.2415 228.755L103.769 253.917L117.625 245.917Z" fill="#FF734B" mask="url(#path-1-inside-1_110:2)"/>
</svg>
